<svg width="80" height="87" viewBox="0 0 80 87" fill="none" xmlns="http://www.w3.org/2000/svg">
<path d="M1.74521 40.2857C1.74521 40.2857 -1.08809 36.1559 3.04423 33.3251C7.17154 30.4943 10.0023 34.6216 10.0023 34.6216L23.1452 53.789C23.5982 53.0331 24.0938 52.2872 24.6469 51.5514L6.40565 24.9528C6.40565 24.9528 3.57485 20.8255 7.70467 17.9947C11.832 15.1639 14.6628 19.2912 14.6628 19.2912L31.8203 44.3129C32.4585 43.7923 33.1118 43.2692 33.7851 42.7561L13.8944 13.7448C13.8944 13.7448 11.0636 9.61745 15.1934 6.78664C19.3207 3.95584 22.1515 8.08316 22.1515 8.08316L42.0422 37.0895C42.7731 36.6415 43.4964 36.2535 44.2223 35.843L25.6306 8.73141C25.6306 8.73141 22.7998 4.6041 26.9271 1.7733C31.0544 -1.05751 33.8852 3.06981 33.8852 3.06981L53.5431 31.7383L56.5316 36.0983C44.1472 44.5933 42.9683 60.5744 50.0441 70.8939C51.4582 72.9588 53.5231 71.5447 53.5231 71.5447C45.0307 59.1577 47.6237 45.239 60.0107 36.7466L56.3589 18.4703C56.3589 18.4703 54.9948 13.6547 59.808 12.2881C64.6236 10.924 65.9902 15.7396 65.9902 15.7396L70.2076 28.2642C71.8795 33.23 73.6591 38.1783 76.0144 42.8587C82.6646 56.0741 78.6925 72.4983 66.1529 81.1008C52.4744 90.4793 33.7751 86.9927 24.3941 73.3168L1.74521 40.2857Z" fill="#FFDC5D"/>
</svg>
